<?xml version="1.0" standalone="no"?>
<!DOCTYPE svg PUBLIC "-//W3C//DTD SVG 20010904//EN"
 "http://www.w3.org/TR/2001/REC-SVG-20010904/DTD/svg10.dtd">
<svg version="1.0" xmlns="http://www.w3.org/2000/svg"
 width="260.000000pt" height="260.000000pt" viewBox="0 0 260.000000 260.000000"
 preserveAspectRatio="xMidYMid meet">
<metadata>
Created by potrace 1.11, written by Peter Selinger 2001-2013
</metadata>
<g transform="translate(0.000000,260.000000) scale(0.100000,-0.100000)"
fill="#000000" stroke="none">
<path d="M1365 2153 c-11 -3 -24 -9 -30 -13 -5 -4 -21 -8 -35 -8 -42 1 -103
-35 -131 -76 -29 -44 -48 -54 -96 -55 -35 -1 -59 -27 -78 -85 -10 -30 -11 -31
-67 -28 -53 2 -59 0 -79 -27 -14 -19 -36 -33 -64 -40 -23 -6 -53 -21 -66 -34
-13 -13 -31 -26 -40 -29 -18 -7 -27 -40 -25 -96 1 -30 5 -38 24 -40 12 -2 22
-7 22 -12 0 -17 -32 -40 -57 -40 -29 0 -27 -14 10 -61 25 -33 67 -48 117 -42
46 5 33 -5 -28 -21 -40 -11 -56 -11 -87 0 -21 7 -42 20 -47 28 -11 20 -54 21
-61 3 -3 -8 -1 -20 3 -27 5 -7 6 -23 3 -34 -16 -61 -9 -79 37 -106 48 -28 61
-58 35 -80 -26 -22 -12 -90 19 -90 8 0 19 -7 26 -15 16 -19 23 -13 60 56 15
29 38 60 50 68 l22 15 -22 -44 c-12 -25 -31 -57 -41 -72 -12 -16 -19 -43 -19
-70 0 -31 -5 -46 -19 -55 -22 -14 -31 -42 -20 -70 9 -23 94 -49 132 -39 12 3
27 2 33 -2 18 -12 52 -67 59 -95 5 -17 14 -27 25 -27 10 0 29 -15 41 -32 12
-18 24 -35 26 -38 3 -2 32 -3 66 -2 45 3 68 9 84 24 17 16 25 18 43 8 29 -15
41 -51 42 -126 1 -62 -11 -94 -35 -94 -6 0 -29 -12 -51 -27 -26 -19 -53 -28
-80 -29 -35 -1 -224 -7 -573 -18 -45 -1 -88 1 -95 6 -7 4 -9 8 -4 8 5 0 0 10
-12 23 -27 28 -17 43 33 51 55 9 61 19 35 60 l-22 36 34 -19 c54 -31 105 -21
112 21 1 7 6 19 11 27 5 10 4 16 -3 19 -9 3 -9 9 -2 23 8 14 7 19 -2 19 -7 0
-24 10 -38 21 l-25 20 35 -7 c62 -13 75 -11 75 13 0 12 9 31 19 42 28 31 23
76 -15 119 -18 20 -42 39 -53 42 -12 3 -22 15 -24 27 -2 15 -11 23 -30 25 -23
2 -27 8 -27 33 -1 37 -27 45 -57 18 -21 -18 -21 -18 -9 4 7 15 8 30 2 46 -15
38 -33 41 -123 22 -14 -4 -33 -17 -42 -30 -9 -13 -26 -25 -38 -27 -13 -2 -27
-13 -33 -25 -7 -16 -18 -23 -37 -23 -14 0 -28 -3 -30 -7 -1 -5 -16 -15 -33
-23 -34 -18 -59 -60 -45 -74 15 -15 12 -26 -5 -26 -13 0 -13 -3 -3 -19 7 -11
21 -24 33 -30 17 -9 15 -9 -10 -4 -16 3 -35 10 -42 15 -14 11 -19 2 -21 -34
-1 -18 5 -31 18 -38 14 -8 18 -17 14 -38 -4 -20 0 -30 15 -40 12 -7 21 -8 21
-4 0 4 7 17 15 28 14 17 14 15 0 -13 -8 -18 -16 -36 -16 -40 -1 -5 -4 -14 -6
-21 -9 -23 6 -41 39 -44 22 -2 36 -10 42 -24 5 -11 23 -30 39 -41 24 -17 35
-20 55 -12 38 15 52 4 52 -38 0 -33 -4 -41 -32 -55 -18 -9 -42 -19 -53 -21
-11 -3 482 -4 1095 -4 613 0 1100 2 1083 4 -21 3 -39 14 -53 33 -29 41 -26 60
10 61 50 2 52 3 68 29 9 14 12 22 8 18 -5 -4 -15 0 -22 10 -20 26 -16 35 8 18
30 -21 81 -20 100 2 25 29 31 70 11 75 -15 4 -15 5 2 6 17 1 13 7 -20 36 l-40
34 46 -14 c49 -14 73 -8 64 16 -3 9 3 24 15 34 30 27 26 75 -11 121 -17 22
-40 41 -52 44 -13 4 -23 15 -25 29 -3 17 -9 22 -22 18 -24 -6 -41 13 -38 44 3
28 -16 32 -52 10 -19 -11 -22 -12 -12 -1 19 22 14 56 -10 72 -19 12 -32 13
-77 2 -30 -6 -61 -21 -70 -32 -9 -11 -28 -22 -43 -26 -19 -4 -28 -13 -28 -26
0 -15 -7 -20 -29 -20 -16 0 -34 -7 -41 -15 -7 -8 -18 -15 -24 -15 -7 0 -22 -9
-33 -20 -19 -17 -20 -23 -10 -56 9 -29 9 -38 -1 -42 -7 -2 -12 -14 -12 -27 0
-12 -7 -28 -15 -35 -11 -9 -13 -16 -5 -24 5 -5 10 -24 10 -42 0 -21 6 -34 17
-39 10 -3 19 -2 21 3 1 5 9 18 17 28 8 11 5 -6 -8 -43 -12 -34 -19 -65 -15
-68 3 -4 20 -8 38 -9 20 -1 36 -10 42 -22 28 -52 66 -69 111 -49 22 9 24 8 30
-34 5 -27 1 -38 -20 -57 -23 -22 -32 -23 -117 -19 -50 2 -203 7 -341 10 -137
4 -258 11 -267 16 -10 5 -21 22 -24 37 -4 15 -20 39 -36 55 -32 31 -36 67 -10
89 18 16 86 30 136 28 32 -1 96 38 96 59 0 7 -14 31 -31 53 -31 38 -65 116
-55 125 2 2 7 -5 11 -16 3 -11 16 -23 28 -27 12 -4 24 -10 27 -13 3 -4 22 -17
43 -29 30 -17 48 -21 92 -17 29 3 65 9 79 15 29 11 57 59 62 108 1 21 11 40
24 49 16 11 18 18 10 28 -6 8 -18 11 -26 8 -8 -3 -26 -2 -42 2 l-27 8 35 9
c65 18 61 47 -10 83 -26 13 -72 47 -101 75 l-54 52 60 -31 c86 -43 92 -45 172
-56 48 -6 53 -5 68 19 15 22 16 31 5 57 -12 29 -11 32 24 61 20 16 43 42 51
57 17 35 17 127 -1 163 -15 29 -82 98 -96 98 -4 0 -8 14 -8 30 0 32 -3 34 -90
61 -43 13 -45 16 -56 64 l-10 50 -43 -3 c-36 -3 -48 1 -71 23 -26 24 -26 28
-17 76 5 27 7 52 4 55 -9 9 -71 21 -84 17 -7 -3 -13 -11 -13 -18 0 -15 -49
-48 -95 -64 -28 -10 -29 -10 -11 4 11 8 23 15 27 15 4 0 17 15 29 34 17 29 19
42 13 82 -7 41 -14 53 -48 76 -31 21 -51 27 -90 27 -27 -1 -59 -4 -70 -6z m55
-88 c0 -2 -9 -22 -20 -43 -15 -29 -19 -51 -16 -97 5 -74 13 -95 36 -95 9 0 31
-7 49 -16 17 -9 37 -17 44 -18 7 -2 25 -8 40 -14 16 -7 30 -12 32 -12 3 0 34
-13 70 -30 36 -16 69 -30 73 -30 5 0 18 -21 30 -47 18 -41 29 -52 74 -72 65
-29 88 -48 81 -67 -3 -8 0 -14 7 -14 8 0 11 -9 8 -25 -4 -20 -1 -25 16 -25 11
0 36 9 54 20 36 22 42 24 42 12 0 -12 -91 -105 -117 -119 -80 -44 -71 -42
-129 -23 -163 57 -282 8 -254 -104 19 -72 63 -150 109 -193 l46 -42 -70 21
c-89 26 -117 46 -139 100 -40 96 -70 152 -73 137 -3 -14 15 -132 33 -221 6
-24 4 -26 -17 -21 -13 4 -40 16 -59 28 -68 41 -67 41 -50 19 28 -36 91 -93
110 -99 13 -4 22 -22 30 -63 6 -31 15 -76 20 -99 6 -23 10 -44 10 -46 0 -3
-24 7 -52 22 -59 29 -208 175 -208 203 0 10 -9 27 -21 39 -19 19 -21 29 -15
88 11 131 13 147 24 168 7 12 14 43 16 70 2 26 7 62 11 78 l8 30 -41 -41 c-40
-40 -79 -128 -88 -198 -5 -36 -17 -51 -57 -71 -16 -8 -31 -15 -32 -15 -1 0 -8
19 -15 43 l-13 42 -9 -30 c-16 -57 -16 -73 -3 -92 13 -17 11 -59 -5 -76 -4 -5
-14 13 -23 40 -40 128 -51 240 -30 318 7 28 11 66 7 86 -5 33 -3 38 31 57 19
12 38 30 41 39 13 40 27 59 65 85 22 16 39 36 39 47 0 10 7 24 16 32 9 7 29
39 45 72 l30 59 -31 -19 c-18 -10 -36 -27 -40 -38 -10 -25 -83 -101 -132 -139
-21 -16 -38 -33 -38 -38 0 -14 -26 -38 -42 -38 -7 0 -35 -11 -63 -24 -48 -24
-50 -24 -53 -6 -4 22 63 136 84 144 8 3 14 12 14 21 0 8 5 15 10 15 6 0 31 19
56 43 46 43 103 95 162 146 65 55 282 161 282 136z"/>
<path d="M1520 1686 c0 -2 32 -20 70 -40 47 -25 70 -32 70 -23 0 23 -40 57
-68 58 -15 0 -37 2 -49 5 -13 2 -23 2 -23 0z"/>
</g>
</svg>
